<?xml version="1.0" encoding="UTF-8" standalone="yes"?>
<!-- Created with sK1/UniConvertor (http://sk1project.org/) -->
<svg xmlns="http://www.w3.org/2000/svg" xmlns:xlink="http://www.w3.org/1999/xlink"
  width="413pt" height="404pt" viewBox="0 0 413 404"
  fill-rule="evenodd">
<g>
<g>
<path style="stroke:none; fill:#000000" d="M 88.3 13.5C 83.8 14.2 79.6 15.1 78.9 15.6C 78.2 16 74.1 16.6 69.8 17C 63.8 17.5 61.4 18.2 59.7 19.9C 58.4 21 56.8 22 56.2 22C 55.5 22 55 23.1 55 24.5C 55 28.1 48.8 32 43 32C 40.5 32 37.9 32.5 37.2 33.2C 35.1 35.3 35.8 40.9 38.3 43.4C 40.6 45.7 41.1 45.8 52.1 45.3C 60.8 44.9 64.3 44.3 66.8 42.9C 71.7 40.1 73.3 40.5 77.9 45.9C 80.1 48.7 83.5 51.4 85.4 52.1C 88.1 53.1 88.9 54 89.3 56.6C 89.6 58.5 91.1 61.6 92.6 63.5C 95 66.7 95.2 67.5 94.4 71.3C 93.5 75.2 93.2 75.6 89.2 76.4C 83.9 77.5 76.7 75.5 77.2 73.1C 77.4 72.2 78.5 71.5 79.7 71.6C 82.9 71.7 83.3 69.5 80.6 66.3C 77.4 62.5001 74.1 55.6 73.7 52.2C 73.3 48.9001 72.3 47 70.8 47C 69.1 47 70.4 57 72.8 62.2C 74 64.8 75 67.4001 75 68C 75 69 73 74.1 69.5 82.5C 68.8 84.1 67.4 89.1 66.5 93.5C 65.5 97.9 64.1 102 63.4 102.7C 61.2 105 58.9 117.2 57.9 133C 57.2 143.9 57.2 148.6 57.9 148.8C 58.5 149 59 150.5 59 152.1C 59 153.7 60.1 158.2 61.4 162.2C 62.7 166.2 65.4 174.9 67.5 181.5C 76.3 210.1 76 209.4 85.4 233.7L 90.2 245.9L 85.1 251.1C 82.3 254 79.4 257.3 78.7 258.6C 78.1 259.8 75.4 264 72.8 267.8C 66.1 277.9 60.8 288.5 61.2 291.1C 61.4 292.8 62.9 293.8 67.5 295.5C 82.3 300.8 95.1 312.1 105 328.5C 106.3 330.7 108.6 334.1 110.2 336C 111.7 337.9 113 339.9 113 340.3C 113 342 121.2 351.5 126.7 356.3C 132.5 361.3 142.3 367.4 150.3 370.9C 161 375.5 187.4 379.9 197.3 378.6C 207.4 377.3 215 371.6 220.5 361.5C 222 358.7 225.2 353.5 227.7 349.8C 230.1 346.1 235.3 336.5 239.2 328.3C 249.4 307 258.5 294.2 267.8 288C 275.8 282.6 282.2 284.9 293.1 297.1C 297.1 301.4 300.7 305 301.2 305C 301.7 305 303.6 306.1 305.3 307.4C 307.1 308.7 311.1 311 314.3 312.5C 323.2 316.7 328.7 315.9 341.5 308.6C 352.2 302.4 359 296.7 359 293.8C 359 291.4 356.3 290.4 343.2 288.2C 337.3 287.1 329.8 285.2 326.5 283.9C 314.5 279.1 320.7 276 344.5 275C 362.8 274.2 368 272.8 368 268.7C 368 266.1 366.4 265 362.4 265C 357.9 265 345.7 258.5 338.1 252.2C 333.7 248.4 329.2 245.6 326.6 244.9C 320.5 243.2 307.4 244.2 302.3 246.7C 297.5 249.1 297 248.3 299.5 243.2C 302 238.3 301.9 227.3 299.4 222.5L 297.3 218.5L 299.4 216.8L 301.5 215.1L 297.7 211.5C 293.5 207.5 293.6 206 298 206C 301.4 206 302.5 204.7 301.1 202.1C 300.3 200.6 300.5 199.9 302 198.9C 304 197.5 304 197.4 301 190.2C 299.4 186.1 297.8 182.5 297.5 182.1C 296.8 180.8 286.9 183.8 284.5 186C 281.2 189.1 279.4 188.4 275.1 182.2C 270.4 175.4 265.1 169.8 259.5 166C 252.5 161.2 242.2 155.9 234.7 153.3C 230.7 152 226.9 150.4 226.3 149.8C 225.5 149.2 225 146.2 225 142.1C 225 134.1 223.2 128.7 218.9 123.6C 217.2 121.5 214.2 116.7 212.3 113C 210.5 109.2 207.8 105.2 206.4 104.1C 200.4 99.4 190.6 103.5 187.9 111.9C 187.2 113.9 184.9 118 182.8 121.2C 178.9 126.8 178.8 126.9 179 135.7C 179.1 140.5 179.2 145 179.1 145.5C 179 146.1 176.9 146.6 174.3 146.5C 168.8 146.5 169.1 147.5 170.9 133.4C 171.5 128.8 171.4 124.5 170.8 121.4C 169.9 117.4 169.7 74.1 170.5 62.5C 170.7 59.2 173.9 56.8 177.5 57.2C 179.2 57.5 179.5 58.2 179.4 63C 179.4 66 178.8 71.5 178.1 75.1C 177.4 78.8 177 84.2 177.2 87.1L 177.5 92.5L 182.2 92.8C 186.5 93.1 187 92.9 188.4 90.2C 189.2 88.6 190.2 86 190.5 84.4C 191.5 79.5 192.1 53.3 191.2 50.9C 190.8 49.6 190.6 46.9 190.9 45C 191.5 41.8 191.9 41.4 196.3 40.3C 202.8 38.7 204.2 37.4 203.8 33.1C 203.5 29.7 203.3 29.5 199.4 29.2L 195.2 28.9L 194.6 22.9L 193.9 17L 186.2 17C 182 17 174.2 17.5 169.1 18C 158.4 19.2 155.3 21 154.8 26.4C 154.5 29.2 154.1 29.6 150 30.2C 147.5 30.5 142.1 30.9 138 30.9C 130.8 30.9 130.4 30.8 126.8 27.5C 123.8 24.7 123 23.2 123 20.5C 123 18 122.5 16.8 121.3 16.4C 120.3 16.1 117.7 15 115.5 13.9C 110.8 11.6 101.2 11.5 88.3 13.5zM 102.5 23.7C 100.3 29.4 98.7 35 98.1 39C 97.7 42 96.9 43.6 95.8 43.8C 93.7 44.2 93 42 92.8 33.2C 92.5 25.3 93.1 24.2 98.2 23C 103.1 21.8 103.3 21.8 102.5 23.7zM 112.6 26.1C 112.9 26.6 114.7 27 116.6 27C 120.5 27 122.1 29.2 120.2 31.9C 119.5 32.8 118.1 35.2 117 37.3C 113.1 44.4 102.1 46 102 39.4C 102 38.2 105.7 26.4 106.5 25.1C 107.1 24.1 111.8 24.9 112.6 26.1zM 86 31.8C 85.1 37.4 85.3 43.1 86.6 45.1C 87.6 46.9 84.7 47.1 82.8 45.4C 80 42.8 78 38.6 78 35.2C 78 31.2 80.2 26.2 81.7 26.7C 82.4 27 83.7 26.7 84.7 26.1C 85.7 25.6 86.6 25.3 86.7 25.4C 86.8 25.5 86.5 28.4 86 31.8zM 74.2 31C 72.7 34.4 71.7 35.2 66.9 37C 60.8 39.2 58 39.5 58 38C 58 36.6 61.5 35 64.5 35C 65.9 35 68 34.5 69.1 34C 70.6 33.1 70.8 32.5 70 31C 69.2 29.5 69.4 28.9 70.7 28.1C 71.7 27.5 73.3 27 74.2 27C 75.7 27 75.7 27.3 74.2 31zM 174.4 36.9C 173 42.7 173.2 49 174.9 49C 176.1 49 178 44.2 178 41.4C 178 38.3 180.6 32 181.9 32C 182.4 32 182 34.5 181 37.6C 179.7 41.4 179.2 44.5 179.6 47C 180.1 50.2 179.9 51 178.2 51.9C 174.7 53.7 170.3 53.3 169.7 51C 169 48.4 170.5 36.8 171.8 34.3C 172.4 33.2 172.6 31.9 172.2 31.5C 171.8 31 172 31 172.7 31.4C 173.3 31.7 174.2 31.5 174.5 30.9C 176 28.6 176 31 174.4 36.9zM 141.8 34.7C 148.7 35.1 150 35.5 150 36.9C 150 40.3 148.2 40.7 135.2 40.2C 122 39.8 119.8 39.1 121.9 36.6C 123.8 34.3 128.2 33.9 141.8 34.7zM 158.5 36.7C 157.8 38.3 156.5 44.9 155.6 51.5C 152.9 70.6 152.9 70.6 152 68.9C 151.2 67.5 150.2 60.3 149.5 51C 149.4 49 150.3 45.2 151.6 42.1C 152.9 39.2 154 36.1 154 35.4C 154 34.5 155.1 34 156.9 34C 159.8 34 159.8 34.1 158.5 36.7zM 48.5 39C 48.9 39.6 48 40 46.6 40C 45.2 40 44 39.5 44 39C 44 38.4 44.9 38 45.9 38C 47 38 48.2 38.4 48.5 39zM 124.4 45.6C 126.1 47.2 126.4 49.8 125.2 51.6C 124.5 52.8 114.7 58 113.2 58C 112.3 58 107 50.3 107 49C 107 47.7 108.2 47.2 114.1 45.6C 121.1 43.7 122.5 43.7 124.4 45.6zM 145.2 47.7C 145.1 49.5 145.6 54.7 146.3 59.2C 147.4 66.1 147.4 72.6 146.2 97C 145.5 113.2 144.8 130.5 144.7 135.5C 144.5 143.5 143.9 147.7 142.4 153.2C 142.1 154.1 140 156 137.7 157.3C 127.8 163.1 118.4 177.5 117.3 188.6C 117 191.5 117.3 196.7 117.9 200.1C 119.9 210.1 117.9 209.2 112 197.3C 99.1 171.1 96.4 166 91.3 158.2C 88.4 153.7 86 149.4 86 148.7C 86 148.1 86.9 145.3 87.9 142.5C 91.3 133.6 95.2 120.6 95.5 117C 96.7 101.7 97.5 86.6 98 70.4C 98 69.7 99.5 68.9 101.4 68.6C 103.2 68.2 106.7 66.6 109 64.9C 111.3 63.2 114.7 61.3 116.4 60.7C 122.1 58.8 127.8 54.2 129 50.5C 129.6 48.6 129.9 46.6 129.6 46.1C 128.8 44.8 131.2 44.4 139 44.5L 145.5 44.5L 145.2 47.7zM 160.1 60.5C 159.3 66 159.2 70.5 159.9 75C 160.8 81.4 160.2 96.4 158 120C 157.4 125.8 157 139 157 149.4C 157 166.7 155.9 177 154 177C 152.9 177 153.9 109.3 155.2 102.5C 155.8 99.2 156.2 92.3 156.1 87.3C 155.7 70.2 159.2 43.5 160.8 50.5C 161 51.6 160.7 56.1 160.1 60.5zM 100.2 58.5C 100.2 63.7 98.4 65.2 96 62C 93.6 58.9 93.5 55.7 95.6 53.5C 97.1 52.1 97.5 52 98.7 53.3C 99.5 54.1 100.2 56.4 100.2 58.5zM 186.8 61.5C 186.3 68.5 185.7 71 184.5 69.9C 183.1 68.4 184.7 54 186.3 54C 186.9 54 187.1 56.8 186.8 61.5zM 107 58.5C 107 59.3 106.6 60 106 60C 105.5 60 105 59.3 105 58.5C 105 57.7 105.5 57 106 57C 106.6 57 107 57.7 107 58.5zM 184 77.2C 184 80.6 182.9 84 181.9 84C 180.9 84 180.7 79 181.6 76.6C 182.5 74.2 184 74.7 184 77.2zM 93.4 98.1C 93.4 110.8 93 115.9 91.6 120.5C 90.6 123.8 89.5 128.1 89.1 130C 88.1 134.7 84.7 142.2 82.9 143.7C 81.7 144.7 80.8 144.6 78.6 143.5C 77 142.7 74.8 142 73.6 142C 69.4 142 67.4 146.5 70.5 149C 71.8 150.1 71.8 150.5 70.5 153.1C 69.7 154.6 69 157 69 158.4C 69 161.7 73.2 163 76.9 160.9C 80.2 159 80.9 156 78.1 155.3C 77 155 76.3 154.4 76.6 153.9C 77.4 152.6 82.4 152.8 84.2 154.2C 86.9 156.4 92 164.2 95.1 171C 96.8 174.6 99 178.4 100 179.5C 100.9 180.6 102.3 183.3 103 185.5C 103.7 187.7 107.3 195.4 111.1 202.6C 119.1 217.8 123.3 228.4 122.5 231.1C 122.1 232.3 120.9 233 119.5 233C 118.2 233 114.8 233.9 112 235C 103.5 238.4 102.2 237.3 106 230.3C 107.1 228.2 108 225.8 108 224.9C 108 222.6 105 215.7 104.3 216.3C 103.8 216.9 101.5 223 96.7 236.8C 95.4 240.8 94.1 243 93.2 242.8C 92.5 242.6 90.4 238 88.5 232.5C 86.7 227 84.6 221.1 83.9 219.5C 83.2 217.8 82.6 216.3 82.5 216C 82.1 214.9 80.8 211.4 79.9 209.3C 79.5 208 76.4 197.9 73.1 186.8C 69.8 175.6 66.2 163.8 65.1 160.6C 62.4 152.8 62.3 149 65 149C 66.8 149 67 148.3 67 142.7C 67 136.7 68.9 125 71 118C 71.6 116.1 72 111.3 71.9 107.4C 71.7 99.5 72.2 98 75 98C 78.6 98 79.7 103 77.1 107.9C 75.6 110.6 75.7 111 78 111C 81.9 111 83.9 105.7 83.9 95.4C 83.9 82.9 85.9 79.1 91.5 81.1C 93.4 81.7 93.5 82.6 93.4 98.1zM 164.9 109C 164.5 114.8 163.7 126.9 163 136C 162.4 145.1 162 156.1 162.2 160.5C 162.6 171.8 160.9 201.5 159.9 199.8C 159.4 199.1 159.1 194.9 159.2 190.5C 159.2 186.1 159 180.7 158.6 178.5C 158.2 176.3 158.4 172.2 159.1 169.5C 159.7 166.7 160.6 153.9 161 141C 161.9 115.5 162.9 99.4 163.6 97C 164.1 95.7 164.2 95.7 164.9 97C 165.3 97.8 165.3 103.2 164.9 109zM 202.9 111.2C 203.5 111.9 207 117 210.7 122.5C 217 131.9 217.4 132.9 217.8 139.1C 218.1 143.9 217.8 146.6 216.5 148.9C 215.6 150.7 215.1 152.4 215.4 152.8C 215.8 153.1 221.8 155.3 228.8 157.6C 244.7 162.9 255.3 168.7 264.2 176.9C 273.6 185.6 275.1 188.9 275.4 200.9C 275.5 206.2 276 211.2 276.5 211.9C 277.6 213.8 277.4 219 276.1 220.3C 274.8 221.6 274.7 224 275.9 225.8C 276.6 226.9 277.6 226.5 281 224.1C 286.1 220.4 290.6 220.1 294.4 223.1C 296.1 224.5 297 226.1 297 228.1C 297 231.6 297 231.5 292.7 229C 290.8 227.9 287.4 226.8 285.2 226.5C 281.7 226.2 280.2 226.7 275.8 229.7C 272.9 231.7 270.2 233.8 269.8 234.4C 268.9 235.8 271.9 239 274.2 239C 275.2 239 276 239.4 276 240C 276 240.5 274.7 241 273.1 241C 269.4 241 267 244.1 267 249C 267 251 265.8 254.9 264.4 257.8C 262.4 261.9 260.3 264.1 254.2 268.3C 236.6 280.6 228.7 284 213 286C 200.8 287.5 181.8 285.4 174.5 281.8C 165.8 277.4 147.6 263.1 138.2 253.1C 133.4 248.1 127.1 236.2 126.4 230.8C 126.1 229 125.5 225.5 125 223C 124.4 220.5 123.7 216.2 123.4 213.5C 122.6 206 122.2 203 121.2 197.5C 120.6 194.7 120.5 190.2 120.9 187.3C 121.8 180.6 127.3 169.9 131.6 166.3C 133.5 164.8 136.5 162.3 138.3 160.7C 142.5 157.1 143.8 157.3 144.6 161.6C 145.1 164.4 144.8 165.8 143.1 168C 142 169.6 141 171.7 141 172.8C 141 173.8 140.6 175 140.1 175.5C 138.2 177.6 135.8 195.9 136.4 204.2C 137 212.4 138.8 228.3 139.7 232.9C 140.6 237.6 146 241.6 155.5 244.5C 160.4 246 165.7 247.4 167.4 247.7C 169.1 247.9 173 248.8 176 249.5C 179 250.2 183.8 251.2 186.5 251.5C 189.3 251.9 195 252.8 199.4 253.6C 211.4 255.8 216.8 255.4 224.2 252.1C 233 248.2 242.6 237.2 250.3 222.5C 265.7 192.8 268.5 183.7 263.6 180.5C 260.2 178.3 242.2 171 237.5 170C 235.3 169.5 228.3 167.7 222 166C 212 163.2 209.9 163 206.3 163.9C 203.3 164.7 201.2 164.7 199.3 163.9C 197.8 163.3 193.8 162.2 190.5 161.5C 185.3 160.2 183.8 160.3 178.6 161.6C 171.1 163.5 169.8 163 170.2 158.4C 170.5 154.8 170.6 154.7 177.1 152.7L 183.7 150.8L 184.3 141.5C 184.9 131.7 185.8 129 190.9 122.6C 192.8 120.2 193.8 118 193.5 117C 192.2 112.9 200.3 108 202.9 111.2zM 150.5 149.6C 150.6 165.6 149.9 171.7 148.5 165.8C 147.5 161.4 147.8 137.7 148.9 131.1C 149 130.9 149.3 131 149.7 131.4C 150.1 131.8 150.5 140 150.5 149.6zM 184.6 168.4C 187.1 170.5 187.3 171.1 186.4 174C 185.2 178.1 181.5 181 176.4 181.7C 171.3 182.4 169.9 180.7 169.8 173.9C 169.8 167.6 171.4 166 177.6 166C 180.7 166 182.7 166.7 184.6 168.4zM 205.5 170.2C 215.2 174.9 214.4 184.3 204.1 185.7C 199 186.4 191.3 184.3 189.5 181.8C 188.4 180.1 188.4 179.1 189.5 175.3C 191.5 168.8 193.7 166.7 197.8 167.5C 199.7 167.8 203.1 169.1 205.5 170.2zM 167.5 198C 167.1 220.9 166.5 228.6 165 229.5C 164.6 229.8 163.7 228 163.1 225.6C 162.3 222.3 162.3 218.4 163.1 210.8C 163.7 205.1 164.3 194 164.4 186C 164.5 178 165 170.6 165.5 169.5C 167.3 165.5 167.9 174.2 167.5 198zM 231.7 174.5C 235.7 176.9 236 177.3 236 181.5C 236 185.5 235.7 186 233.4 186.6C 230.3 187.4 223.2 186.5 219.6 184.9C 217.8 184 217 182.9 217 181C 217 177.5 222.4 172.4 226.4 172.1C 226.9 172 229.3 173.1 231.7 174.5zM 254.8 184C 255.1 189.2 253.8 190.5 248.4 190.4C 242.7 190.3 241 188.4 241.9 183.8C 242.7 180.1 245.3 179 251 180C 254.2 180.5 254.5 180.9 254.8 184zM 152 189.4C 151.9 190 151.3 191.6 150.5 193C 149.1 195.4 149.1 195.3 149.1 190C 149.1 184.9 149.2 184.7 150.5 186.4C 151.3 187.5 152 188.9 152 189.4zM 156.5 200.7C 156.3 202.5 155.6 205.8 155 208.1C 154.1 211.2 153.6 212 152.9 210.9C 151.7 208.9 151.8 201.4 153.2 196.8C 154.3 192.9 154.4 192.9 155.6 195.2C 156.3 196.5 156.7 198.9 156.5 200.7zM 206.4 200.3C 207.2 201.5 206.9 202.9 205.2 205.8C 204 208 203 211.2 203 212.9C 203 214.8 202.5 216 201.7 216C 199.2 216 198 213.6 198 208.6C 198 204.5 198.5 203.1 200.7 200.8C 203.6 197.8 204.8 197.7 206.4 200.3zM 222 210.9C 222 213.3 220.9 214.5 217.3 216.4C 214 218.1 210.8 218.5 209.7 217.3C 209.3 217 210.8 214.9 212.9 212.8C 215.1 210.7 217.2 208 217.6 206.8L 218.3 204.6L 220.1 206.9C 221.2 208.2 222 210 222 210.9zM 149.2 215.2C 148.2 217.4 148.1 217.3 148.1 214C 148 211.4 148.3 210.9 149.2 211.8C 150 212.6 150 213.5 149.2 215.2zM 159.8 215.2C 159.4 220.7 157 221.6 157 216.2C 157 214.1 157.3 212 157.7 211.7C 159.3 210 160.1 211.3 159.8 215.2zM 189.7 219C 191.2 219.6 194.4 222.1 196.8 224.7C 201.4 229.7 200.2 229.5 213.1 227.4C 217.8 226.6 221 228.3 221 231.5C 221 236.5 215.1 237.1 192.5 234.2C 177.9 232.3 174.8 231.3 173 227.9C 169.5 221.5 180.5 215.6 189.7 219zM 148.8 223.2C 148.2 225 146 225.3 146 223.6C 146 222.7 146.7 222 147.6 222C 148.5 222 149 222.5 148.8 223.2zM 161 227.4C 161 229.3 159.3 230.3 157.3 229.6C 156.1 229.1 156 228.7 157 227.5C 158.6 225.6 161 225.6 161 227.4zM 154.9 231.4C 155.8 232.3 156 233.8 155.6 235.4C 154.4 240.3 146 237.7 146 232.5C 146 231.3 146.3 230 146.7 229.6C 147.8 228.5 153.2 229.8 154.9 231.4zM 291.4 234.5C 292.7 235.9 294.5 237 295.4 237C 297.7 237 297.4 238.3 294 243.6C 289.1 251.5 280.2 255.2 276.1 251.1C 274.9 249.9 274 248.5 274 248C 274 246.1 277 245.7 278.9 247.4C 280.5 248.9 280.9 248.8 284.8 245.2C 288.7 241.6 288.9 241.2 288 237.9C 286.1 231.4 287.4 230.1 291.4 234.5zM 167.3 235.7C 170.7 236.4 172.8 240.6 170.8 242.6C 169.7 243.7 168.7 243.7 165.1 242.6C 159.4 241 157.4 238.4 159.7 235.8C 160.6 234.7 162 234.2 162.9 234.5C 163.8 234.9 165.8 235.4 167.3 235.7zM 124 237.5C 124 239.8 119.3 241.7 117.7 240.1C 116.8 239.1 116.9 238.6 118.4 237.4C 121 235.6 124 235.6 124 237.5zM 189.8 241.2C 190.4 241.8 191 242.8 191 243.5C 191 246.2 188.6 246.8 183.2 245.8C 177.8 244.7 176.3 243.3 177.4 240.4C 177.9 239.1 178.9 238.9 183.3 239.5C 186.1 239.9 189.1 240.7 189.8 241.2zM 213.5 243.1C 214.8 244.5 215.4 246.3 215.1 248.7C 215 250.3 208.6 250.3 201 248.7C 196.3 247.7 195.5 247.2 195.4 245.2C 195.3 243.6 196 242.6 197.4 242.1C 200.8 240.8 212 241.5 213.5 243.1zM 225.5 242.9C 226.2 244.1 223.3 247 221.4 247C 220 247 219.4 243.9 220.7 242.7C 221.6 241.7 224.8 241.9 225.5 242.9zM 104.4 246.2C 106.2 250.5 104.9 253.9 99.9 258C 96.7 260.5 95.6 260.9 94.5 260C 92.7 258.5 90.7 252.3 91.4 250.5C 91.9 249 100.7 243 102.2 243C 102.7 243 103.7 244.4 104.4 246.2zM 123 249.2C 124.1 251 125 252.8 125 253.1C 125 254.7 118.6 261.5 117.2 261.5C 115.2 261.5 111 255.5 111 252.7C 111 249.6 114.9 246 118.2 246C 120.3 246 121.5 246.8 123 249.2zM 315 250.9C 316.2 253.2 315.9 253.4 310.6 254.9C 306.4 256 303 255 303 252.5C 303 248.9 313.1 247.5 315 250.9zM 135.8 256.5C 139.2 261.2 139.8 263 137.7 263C 135.6 263 129 255.1 129 252.6C 129 252.3 129.8 252 130.8 252C 131.7 252.1 134 254.1 135.8 256.5zM 338.5 258.6C 342.1 260.9 341.6 262 337 262C 332.7 262 327 259.7 327 258C 327 256.4 335.9 256.9 338.5 258.6zM 307 260.9C 308.6 264.1 308.2 264.8 304.3 265.9C 297.9 267.7 294.6 267.3 291.7 264.2C 287.9 260.3 289.6 259 298.7 259C 304.8 259 306.1 259.3 307 260.9zM 273 262C 274.2 262.8 273.9 263 271.7 263C 270.1 263 269.1 262.6 269.5 262C 270.3 260.8 271.1 260.8 273 262zM 331.2 266.2C 333.3 267.2 335.3 270.7 334.5 271.9C 334.2 272.4 331.8 273.1 329.2 273.5C 324.4 274.1 324.2 274 319.9 269.8L 315.6 265.5L 319.5 264.9C 323.9 264.3 328.6 264.8 331.2 266.2zM 280.6 268.7C 282.1 270.3 282.1 270.5 279.6 272.7C 276.3 275.5 272.6 275.6 266.6 273C 262.3 271.1 261 269.3 262.7 267.7C 263 267.3 266.8 267 271.1 267C 277.1 267 279.2 267.4 280.6 268.7zM 100.1 274.7C 105.2 283.5 105.3 284 102.9 286.6L 100.7 289L 95.1 283.7C 92 280.9 89.4 277.9 89.2 277.2C 88.6 275.2 93 269 95 269C 96.2 269 97.9999 271.1 100.1 274.7zM 121.2 271.7C 124.4 275.3 127 279.2 127 280.5C 127 282.6 119.2 290 117 290C 114.3 290 110 285.7 110 283.1C 110 282 111.4 278.8 113 276C 114.7 273.2 116 270.5 116 270C 116 268.1 118.7 269 121.2 271.7zM 144.3 274.4C 146.9 276.7 149 279.2 149 279.9C 149 281.4 146.1 286.1 144.2 287.7C 141 290.3 131.5 282.4 132.5 278.1C 133.3 274.9 136.8 270 138.3 270C 139 270.1 141.6 272 144.3 274.4zM 82.2999 275.8C 84.7999 278.5 83.9999 280.6 78.5999 285.9C 74.5999 289.8 73.9999 290.1 70.5999 289.5C 68.5999 289.1 66.9999 288.4 66.9999 287.9C 66.9999 286.4 69.8999 279.9 72.5999 275.2C 74.9999 271.1 75.1999 271 77.7999 272.4C 79.2999 273.2 81.2999 274.7 82.2999 275.8zM 299 273.3C 302.2 275 306 278.2 306 279.2C 306 279.7 303.9 280 301.3 280C 297.5 280 295.8 279.4 293.3 277.1C 289.5 273.8 289.3 273.3 291.8 272.7C 294.9 271.9 296.5 272 299 273.3zM 160.8 279.5C 166.4 283.4 167.3 285 163.7 285C 160.7 285 154.1 280 154 277.7C 154 275.3 154.8 275.5 160.8 279.5zM 255.4 281.1C 258.6 282.8 261.4 284.9 261.7 285.8C 262.1 286.7 261 288.5 258.7 290.6L 255.1 294L 247.9 290.5C 239.3 286.4 238.8 286 240.3 284C 241.5 282.5 248 278 249.1 278C 249.4 278 252.2 279.4 255.4 281.1zM 302.7 286.2C 306 289.2 305.6 291 301.8 291C 298.4 291 290.7 286.4 291.6 284.9C 292.7 283.1 300.3 283.9 302.7 286.2zM 234 288.6C 234 289 233.5 291 232.8 293.1L 231.7 297L 224.6 296.4C 220.7 296 217.1 295.3 216.5 294.8C 214.7 293.2 217.6 290.5 221.8 289.9C 224.1 289.6 226.3 289.1 226.6 288.7C 227.5 287.8 234 287.8 234 288.6zM 174.3 292.6C 179.7 295.4 179.9 295.7 178.8 300C 178.2 302.1 177 304.6 176 305.5C 174.4 306.9 173.7 306.8 166.6 303.6C 162.4 301.7 159 299.6 159 298.9C 159 296.8 163.3 290.1 164.9 289.7C 166.7 289.3 169.5 290.2 174.3 292.6zM 330.5 291.2C 333 291.9 334.9 292.9 334.7 293.5C 334.5 294 332.3 295.6 329.7 296.8L 325.1 299.2L 321.3 296.4C 315.5 292.2 315.5 292.1 318.1 291.1C 321.4 289.8 325.2 289.8 330.5 291.2zM 191.9 291.6C 193.6 292 194.7 292.6 194.4 293.1C 193.7 294.2 184 294.3 184 293.2C 184 291 186.3 290.5 191.9 291.6zM 149.8 297C 153.6 299.3 153.8 300.9 150.8 306.1C 148.3 310.6 147.3 310.8 142 307.7C 137.3 305.1 137 303 140.6 298.3C 143.5 294.5 145.2 294.2 149.8 297zM 105.3 300.6C 108.1 304.6 108.1 304.9 106.6 307.2C 105.7 308.6 103.8 310.2 102.4 310.8C 100.1 311.9 99.5999 311.7 96.8999 308.8C 93.3999 304.9 93.2999 303.6 96.2999 299.3C 99.1999 295 101.6 295.3 105.3 300.6zM 207.8 297.5C 211.5 298.1 212 298.5 212 300.8C 211.9 302.3 211.3 305.7 210.6 308.5L 209.3 313.5L 201.1 313.6C 196.6 313.6 192.7 313.3 192.4 312.9C 191.7 311.7 196.1 297.7 197.4 296.8C 198 296.3 199.6 296.2 201 296.4C 202.4 296.7 205.4 297.2 207.8 297.5zM 128.3 302.4C 130.8 304 130.4 306.5 126.9 310.5C 123 314.8 121 314.9 117 310.7C 112.3 305.8 112.1 303.2 115.9 299.8L 119.1 296.9L 122.8 299.1C 124.8 300.4 127.3 301.9 128.3 302.4zM 240.3 302.6C 243.2 303.6 245 304.8 245 305.7C 245 307.3 239.5 318.8 238 320.4C 237.5 320.9 236.1 320.6 234.6 319.6C 233.2 318.7 231.3 318 230.4 318C 229 318 228.9 317.2 229.5 311.8C 230.3 305.4 232.3 301 234.4 301C 235.1 301 237.7 301.7 240.3 302.6zM 331 303.4C 336.1 305.3 335.9 307.3 330.5 308.9C 325.1 310.5 318.1 309.7 314.8 307L 312.5 305.2L 316 303.7C 320.3 301.8 326.3 301.7 331 303.4zM 182.4 312.6C 186.9 314.2 187.1 314.3 186.4 317.4C 185.7 320.9 183.6 323.7 180.9 324.5C 179.2 325.1 171 321.6 171 320.4C 171 319.3 176.2 311 176.9 311C 177.3 311 179.8 311.7 182.4 312.6zM 153.9 316.9C 155.9 318 159.2 319.6 161.3 320.5C 163.3 321.5 165 322.7 165 323.4C 165 324 163.4 326.5 161.5 328.9C 159.6 331.3 158 333.6 158 334C 158 334.3 157.1 335.6 155.9 336.9C 154.4 338.5 153.2 338.9 151.7 338.4C 148.2 337.3 139.1 330.6 139 329.1C 139 326.2 147.1 315 149.3 315C 149.8 315 151.9 315.9 153.9 316.9zM 222.5 319.2C 225.4 320.5 225.4 320.4 222.5 330.6C 221.7 333.5 220.3 336.1 219.3 336.4C 217 337.3 208.2 334.2 207.6 332.2C 206.9 329.9 208.4 323.5 210.4 320.5C 211.7 318.5 212.9 318 216 318C 218.1 318 221.1 318.5 222.5 319.2zM 127.4 324.2C 133.8 329.3 134.4 331.1 131 334.8C 128.3 337.7 125.6 337.6 121.6 334.5C 119.8 333.1 117.9 332 117.3 332C 116.8 332 115.5 331.2 114.6 330.1C 113 328.3 113.1 328.1 117.1 324.6C 119.5 322.6 121.8 321 122.3 321C 122.8 321 125.1 322.5 127.4 324.2zM 196.9 333L 202.2 335.3L 201.6 340.6C 200.6 349.1 199.6 351 195.9 351C 191.5 351 179.9 349 177.7 347.8C 175.5 346.7 176 344.8 180.8 336.1C 184.2 329.9 184.4 329.8 187.9 330.3C 189.9 330.5 194 331.8 196.9 333zM 224.4 342.6C 225.8 343.1 225.7 343.6 224 346.9C 223 349 221.4 351.2 220.6 351.9C 218.1 354 217.4 350.6 219.5 345.9C 221.4 341.9 221.8 341.6 224.4 342.6zM 136.1 347.3C 145.7 352.1 145.3 351.7 143 355.1C 139.9 359.4 136.8 358.9 130.8 353.2C 126.7 349.3 125.9 347.9 126.4 346.2C 127.4 343.3 128.5 343.4 136.1 347.3zM 163.1 346.1C 168.1 347.8 169.4 349.3 168.1 351.9C 166.1 355.5 163.8 356.1 157.5 354.3C 151.1 352.5 150.1 351.1 152.4 347.5C 154.2 344.7 157.5 344.3 163.1 346.1zM 210.3 358.3C 210 362.8 205.5 368 201.9 368C 200.2 368 198 367.5 197 367C 195.1 366 195.1 365.8 196.7 361.7C 199.2 355.3 199.7 354.9 205.4 355.2C 210.3 355.5 210.5 355.6 210.3 358.3zM 177.2 364.5C 181.1 365.9 185.4 367 186.6 367C 189.6 367 190.3 368.3 188.8 371.4C 187.3 374.9 184.2 375.5 178.3 373.7C 175.7 372.9 170.7 371.4 167.2 370.4C 163.7 369.5 160.7 368.2 160.3 367.8C 159.3 366.1 164.2 362 167.2 362C 168.8 362 173.3 363.1 177.2 364.5z"/>
<path style="stroke:none; fill:#000000" d="M 82.9 177.5C 82.8 178 82.9 181.2 83 184.5C 83.2 190.9 86.4 198.1 89.9 199.9C 90.9 200.5 92.3 203.1 93 205.7C 95.1 213.9 95 213.7 96.5 211.6C 97.5 210.3 97.6 209.1 96.9 207.3C 96.4 206 96 203.1 96 200.9C 96 197.4 95.7 197 93.6 197C 91.7 197 91 196.3 90.4 193.7C 90.1 192 88.9 188.9 87.9 187C 86.8 185.1 86 182.8 86 182C 86 180.1 83.1 176 82.9 177.5z"/>
<path style="stroke:none; fill:#000000" d="M 190.6 136C 188.7 140.7 188.5 149.1 190.2 150.8C 193.3 153.9 198.2 150 196 146.1C 195.5 145 195 141.4 195 138.1C 195 130.8 193.1 129.9 190.6 136z"/>
<path style="stroke:none; fill:#000000" d="M 205.5 135C 205.1 135.6 205.1 137.4 205.5 139C 206.2 142.2 204 147.4 201.5 148.3C 200.7 148.7 200 150 200 151.4C 200 155.7 208.2 158.9 210.9 155.6C 212.8 153.4 212.4 145.9 210 139.7C 207.9 134.1 206.8 132.9 205.5 135zM 207 151.6C 207 152.4 206.5 152.8 206 152.5C 205.4 152.1 205.2 151.4 205.5 150.9C 206.4 149.5 207 149.8 207 151.6z"/>
<path style="stroke:none; fill:#000000" d="M 170.2 264.2C 168.3 266.1 168.8 269.7 171.3 272.3C 172.5 273.6 175.2 276.6 177.4 278.8C 181.6 283.4 185.6 284.7 191.7 283.5C 195.9 282.7 203.4 279.2 207 276.2C 209.4 274.2 209.4 274 207.8 272.4C 206.1 270.7 205.8 270.7 200.8 272.8C 191.4 276.7 184.5 275.1 177.4 267.5C 172.9 262.7 172.1 262.3 170.2 264.2z"/>
</g>
</g>
</svg>